<svg xmlns="http://www.w3.org/2000/svg" viewBox="0 0 1200 800" role="img" aria-labelledby="title desc">
  <title id="title">Miniatura de curso por defecto</title>
  <desc id="desc">Imagen genérica para cursos sin miniatura cargada.</desc>
  <defs>
    <linearGradient id="bg" x1="0" y1="0" x2="1" y2="1">
      <stop offset="0%" stop-color="#f4efe6"/>
      <stop offset="100%" stop-color="#dbe6f7"/>
    </linearGradient>
  </defs>
  <rect width="1200" height="800" fill="url(#bg)"/>
  <g fill="none" stroke="#374151" stroke-width="18" opacity="0.35">
    <circle cx="280" cy="260" r="120"/>
    <circle cx="950" cy="560" r="160"/>
  </g>
  <rect x="300" y="220" width="600" height="360" rx="28" fill="#ffffff" opacity="0.9"/>
  <g fill="#1f2937">
    <path d="M430 360h340a16 16 0 0 1 0 32H430a16 16 0 0 1 0-32Zm0 70h220a16 16 0 0 1 0 32H430a16 16 0 1 1 0-32Z"/>
    <path d="M640 270c44 0 80 36 80 80s-36 80-80 80-80-36-80-80 36-80 80-80Zm-5 48v66l54-33-54-33Z" fill-rule="evenodd"/>
  </g>
  <text x="600" y="650" text-anchor="middle" font-family="sans-serif" font-size="42" fill="#334155" opacity="0.85">Curso sin miniatura</text>
</svg>
